<?xml version="1.0" encoding="UTF-8"?>
<svg width="469px" height="168px" viewBox="0 0 469 168" version="1.1" xmlns="http://www.w3.org/2000/svg" xmlns:xlink="http://www.w3.org/1999/xlink">
    <!-- Generator: Sketch 41.2 (35397) - http://www.bohemiancoding.com/sketch -->
    <title>&amp;ERS Mark</title>
    <desc>Created with Sketch.</desc>
    <defs>
        <polygon id="path-1" points="244 41.2 197.4 41.2 197.4 66.4 241.4 66.4 241.4 99.6 197.4 99.6 197.4 125.6 244 125.6 244 158.8 158.2 158.8 158.2 8 244 8"></polygon>
        <path d="M131.2,156 L82.4,156 L45,98 L45,156 L5.8,156 L5.8,5.2 L66.8,5.2 C75.200042,5.2 82.533302,6.433321 88.8,8.9 C95.066698,11.366679 100.233313,14.733312 104.3,19 C108.366687,23.266688 111.433323,28.199972 113.5,33.8 C115.566677,39.400028 116.6,45.399968 116.6,51.8 C116.6,63.266724 113.833361,72.566631 108.3,79.7 C102.766639,86.833369 94.600054,91.666654 83.8,94.2 L131.2,156 Z" id="path-2"></path>
    </defs>
    <g id="Page-1" stroke="none" stroke-width="1" fill="none" fill-rule="evenodd">
        <g id="Artboard-Copy-2" transform="translate(-64.000000, -66.000000)">
            <g id="&amp;ERS-Mark" transform="translate(64.000000, 66.000000)">
                <path d="M446.6,46.8 C442.333312,43.333316 438.066688,40.766675 433.8,39.1 C429.533312,37.433325 425.40002,36.6 421.4,36.6 C416.333308,36.6 412.200016,37.799988 409,40.2 C405.799984,42.600012 404.2,45.733314 404.2,49.6 C404.2,52.26668 404.999992,54.466658 406.6,56.2 C408.200008,57.933342 410.299987,59.433327 412.9,60.7 C415.500013,61.966673 418.433317,63.066662 421.7,64 C424.966683,64.933338 428.199984,65.933328 431.4,67 C444.200064,71.266688 453.566637,76.966631 459.5,84.1 C465.433363,91.233369 468.4,100.533276 468.4,112 C468.4,119.733372 467.100013,126.733302 464.5,133 C461.899987,139.266698 458.100025,144.633311 453.1,149.1 C448.099975,153.566689 441.966703,157.033321 434.7,159.5 C427.433297,161.966679 419.200046,163.2 410,163.2 C390.933238,163.2 373.266748,157.53339 357,146.2 L373.8,114.6 C379.666696,119.800026 385.466638,123.666654 391.2,126.2 C396.933362,128.733346 402.599972,130 408.2,130 C414.600032,130 419.366651,128.533348 422.5,125.6 C425.633349,122.666652 427.2,119.333352 427.2,115.6 C427.2,113.333322 426.800004,111.366675 426,109.7 C425.199996,108.033325 423.866676,106.500007 422,105.1 C420.133324,103.699993 417.700015,102.400006 414.7,101.2 C411.699985,99.999994 408.066688,98.666674 403.8,97.2 C398.733308,95.599992 393.766691,93.833343 388.9,91.9 C384.033309,89.966657 379.700019,87.400016 375.9,84.2 C372.099981,80.999984 369.033345,76.966691 366.7,72.1 C364.366655,67.233309 363.2,61.066704 363.2,53.6 C363.2,46.133296 364.433321,39.366697 366.9,33.3 C369.366679,27.233303 372.833311,22.033355 377.3,17.7 C381.766689,13.366645 387.233301,10.000012 393.7,7.6 C400.166699,5.199988 407.39996,4 415.4,4 C422.866704,4 430.666626,5.033323 438.8,7.1 C446.933374,9.166677 454.733296,12.19998 462.2,16.2 L446.6,46.8 Z" id="S" fill="#000000"></path>
                <g id="E">
                    <use fill="#000000" fill-rule="evenodd" xlink:href="#path-1"></use>
                    <use fill="black" fill-opacity="1" xlink:href="#path-1"></use>
                </g>
                <g id="R" transform="translate(242.000000, 3.000000)">
                    <path d="M131.2,156 L83.8,94.2 C94.600054,91.666654 102.766639,86.833369 108.3,79.7 C113.833361,72.566631 116.6,63.266724 116.6,51.8 C116.6,45.399968 115.566677,39.400028 113.5,33.8 C111.433323,28.199972 108.366687,23.266688 104.3,19 C100.233313,14.733312 95.066698,11.366679 88.8,8.9 C82.533302,6.433321 75.200042,5.2 66.8,5.2 L5.8,5.2 L5.8,156 L45,156 L45,98 L82.4,156 L131.2,156 Z M40.7978781,100.709644 L50,98 L50,114.980314 L40.7978781,100.709644 Z M84.9418467,99.0678728 L87.7674118,91.1570337 L92.1857892,96.917703 C89.895682,97.7557616 87.4803725,98.4724162 84.9418467,99.0678728 Z M50,161 L0.8,161 L0.8,0.2 L66.8,0.2 C75.7958348,0.2 83.7451451,1.53692945 90.6313242,4.24744674 C97.5527223,6.97182687 103.3328,10.7382002 107.919344,15.5503123 C112.458204,20.3123945 115.888679,25.8309841 118.190761,32.0688857 C120.465748,38.2333652 121.6,44.8193447 121.6,51.8 C121.6,64.314418 118.512833,74.6917614 112.250734,82.7645881 C107.316139,89.1260542 100.595049,93.8403568 92.1857892,96.917703 L141.336289,161 L79.6747627,161 L50,114.980314 L50,161 Z" id="Path" fill="#FFFFFF"></path>
                    <g id="Path-Copy-2">
                        <use fill="#000000" fill-rule="evenodd" xlink:href="#path-2"></use>
                        <use fill="black" fill-opacity="1" xlink:href="#path-2"></use>
                    </g>
                    <path d="M45,72.6 L52.4,72.6 C60.133372,72.6 66.066646,71.000016 70.2,67.8 C74.333354,64.599984 76.4,60.00003 76.4,54 C76.4,47.99997 74.333354,43.400016 70.2,40.2 C66.066646,36.999984 60.133372,35.4 52.4,35.4 L45,35.4 L45,72.6 Z" id="Path" fill="#FFFFFF"></path>
                </g>
                <g id="Group">
                    <path d="M111.2,101.4 L92.2,81.4 C97.400026,78.73332 101.766649,76.100013 105.3,73.5 C108.833351,70.899987 111.699989,68.166681 113.9,65.3 C116.100011,62.433319 117.666662,59.366683 118.6,56.1 C119.533338,52.833317 120,49.20002 120,45.2 C120,39.333304 118.833345,33.900025 116.5,28.9 C114.166655,23.899975 110.900021,19.533352 106.7,15.8 C102.499979,12.066648 97.533362,9.166677 91.8,7.1 C86.066638,5.033323 79.800034,4 73,4 C66.3333,4 60.133362,5.033323 54.4,7.1 C48.666638,9.166677 43.700021,12.033315 39.5,15.7 C35.299979,19.366685 32.000012,23.733308 29.6,28.8 C27.199988,33.866692 26,39.333304 26,45.2 C26,54.000044 29.866628,63.266618 37.6,73 L40.2,76 L36,78 C31.066642,80.266678 26.900017,82.499989 23.5,84.7 C20.099983,86.900011 17.000014,89.533318 14.2,92.6 C10.466648,96.60002 7.833341,100.766645 6.3,105.1 C4.766659,109.433355 4,114.399972 4,120 C4,126.266698 5.199988,132.033307 7.6,137.3 C10.000012,142.566693 13.333312,147.133314 17.6,151 C21.866688,154.866686 26.933304,157.866656 32.8,160 C38.666696,162.133344 45.133298,163.2 52.2,163.2 C68.733416,163.2 85.99991,157.20006 104,145.2 L117.2,159 L166,159 L132.4,123.2 L135.4,120.4 C139.133352,116.933316 142.433319,113.633349 145.3,110.5 C148.166681,107.366651 150.733322,104.266682 153,101.2 L130.8,79.8 C125.733308,86.600034 119.20004,93.799962 111.2,101.4 Z M135.129273,126.124221 L135.316624,120.46261 L138.061633,123.387352 L135.129273,126.124221 Z M94.0252666,84.9592699 L95.0999977,78.6450022 L98.7083606,82.4432789 C97.2244482,83.2806149 95.6634724,84.1191643 94.0252666,84.9592699 Z M114.099998,98.6450022 L108.445002,98.5000023 C109.426983,97.5671207 110.386059,96.6407906 111.322229,95.7210352 L114.099998,98.6450022 Z M127.592469,77.4100747 L130.306127,73.76806 L158.302522,100.755576 L156.216705,103.577564 C153.864864,106.759466 151.209563,109.966518 148.251222,113.200054 C145.307629,116.417469 141.93148,119.793618 138.129273,123.324221 L175.239985,163 L115.490842,163 L103.402222,150.361897 C85.7829201,161.556337 68.7078754,167.2 52.2,167.2 C44.6808812,167.2 37.7525535,166.057183 31.4330277,163.759174 C25.0889505,161.452237 19.5729243,158.186168 14.9139223,153.963948 C10.2432381,149.73114 6.58561175,144.720192 3.96011364,138.958682 C1.3177245,133.160106 0,126.827708 0,120 C0,113.965775 0.835831452,108.55104 2.52911091,103.765685 C4.25470541,98.8890053 7.18257031,94.2563077 11.246058,89.9029225 C14.2755551,86.5849019 17.6375824,83.7289863 21.3269949,81.3417194 C24.7836266,79.1050753 28.9492033,76.8597101 33.7849771,74.617158 C25.9816885,64.5348333 22,54.7260339 22,45.2 C22,38.7478639 23.3284527,32.6960238 25.9850486,27.0876546 C28.6199821,21.5250174 32.254765,16.7153551 36.8693694,12.6867322 C41.4527625,8.68535732 46.8527586,5.56858103 53.0435728,3.33700846 C59.2223813,1.10976354 65.8809626,0 73,0 C80.2502871,0 86.9752181,1.1088982 93.1564272,3.33700846 C99.3591712,5.57288129 104.768687,8.73145792 109.357455,12.8103627 C113.963103,16.9042721 117.55971,21.7119805 120.124733,27.2084581 C122.709295,32.7468063 124,38.7578037 124,45.2 C124,49.5576882 123.486076,53.5589539 122.446096,57.1988845 C121.37227,60.957276 119.574898,64.4755355 117.073237,67.7352751 C114.631826,70.9165077 111.49397,73.9084173 107.670722,76.7217506 C105.083818,78.6253217 102.097026,80.5311367 98.7083606,82.4432789 L111.322229,95.7210352 C117.864302,89.2936723 123.287813,83.1873752 127.592469,77.4100747 Z" id="Path" fill="#FFFFFF"></path>
                    <path d="M111.2,101.4 C119.20004,93.799962 125.733308,86.600034 130.8,79.8 L153,101.2 C150.733322,104.266682 148.166681,107.366651 145.3,110.5 C142.433319,113.633349 139.133352,116.933316 135.4,120.4 L132.4,123.2 L166,159 L117.2,159 L104,145.2 C85.99991,157.20006 68.733416,163.2 52.2,163.2 C45.133298,163.2 38.666696,162.133344 32.8,160 C26.933304,157.866656 21.866688,154.866686 17.6,151 C13.333312,147.133314 10.000012,142.566693 7.6,137.3 C5.199988,132.033307 4,126.266698 4,120 C4,114.399972 4.766659,109.433355 6.3,105.1 C7.833341,100.766645 10.466648,96.60002 14.2,92.6 C17.000014,89.533318 20.099983,86.900011 23.5,84.7 C26.900017,82.499989 31.066642,80.266678 36,78 L40.2,76 L37.6,73 C29.866628,63.266618 26,54.000044 26,45.2 C26,39.333304 27.199988,33.866692 29.6,28.8 C32.000012,23.733308 35.299979,19.366685 39.5,15.7 C43.700021,12.033315 48.666638,9.166677 54.4,7.1 C60.133362,5.033323 66.3333,4 73,4 C79.800034,4 86.066638,5.033323 91.8,7.1 C97.533362,9.166677 102.499979,12.066648 106.7,15.8 C110.900021,19.533352 114.166655,23.899975 116.5,28.9 C118.833345,33.900025 120,39.333304 120,45.2 C120,49.20002 119.533338,52.833317 118.6,56.1 C117.666662,59.366683 116.100011,62.433319 113.9,65.3 C111.699989,68.166681 108.833351,70.899987 105.3,73.5 C101.766649,76.100013 97.400026,78.73332 92.2,81.4 L111.2,101.4 Z" id="Path-Copy" fill="#000000"></path>
                    <path d="M58.8,96 C49.333286,101.866696 44.6,107.733304 44.6,113.6 C44.6,115.733344 45.066662,117.699991 46,119.5 C46.933338,121.300009 48.199992,122.833327 49.8,124.1 C51.400008,125.366673 53.233323,126.366663 55.3,127.1 C57.366677,127.833337 59.599988,128.2 62,128.2 C68.6667,128.2 75.533298,126.000022 82.6,121.6 L58.8,96 Z" id="Path" fill="#FFFFFF"></path>
                    <path d="M75,63.2 C84.33338,57.599972 89,51.333368 89,44.4 C89,40.666648 87.766679,37.433347 85.3,34.7 C82.833321,31.966653 79.666686,30.6 75.8,30.6 C72.199982,30.6 69.200012,31.799988 66.8,34.2 C64.399988,36.600012 63.2,39.599982 63.2,43.2 C63.2,48.000024 67.133294,54.666624 75,63.2 Z" id="Path" fill="#FFFFFF"></path>
                </g>
            </g>
        </g>
    </g>
</svg>