<?xml version="1.0" encoding="UTF-8"?>
<svg width="1505px" height="501px" viewBox="0 0 1505 501" version="1.1" xmlns="http://www.w3.org/2000/svg" xmlns:xlink="http://www.w3.org/1999/xlink">
    <!-- Generator: Sketch 42 (36781) - http://www.bohemiancoding.com/sketch -->
    <title>Artboard</title>
    <desc>Created with Sketch.</desc>
    <defs></defs>
    <g id="Page-1" stroke="none" stroke-width="1" fill="none" fill-rule="evenodd">
        <g id="Artboard" fill="#061E1E">
            <g id="Word_Mark">
                <path d="M333.59,309.59 C359,285.49 380.87,261.34 397,239.77 L466.19,309 C447.13,334.78 424.19,357 400.84,378.79 L507.43,492.31 L352.63,492.31 L310.76,448.53 C244.3,488.6 159.53,521.12 84.09,485.6 C48.09,468.6 20.09,439.96 7.83,401.69 C-3.17,367.47 -1.62,326.69 17.64,295.62 C38.77,261.51 73.54,245.62 108.37,229.02 C82.15,198.77 60.51,162.76 63.71,121.3 C67.45,72.68 100.49,32.75 144.53,14 C231.71,-23.22 357.26,20.1 361.42,126.33 C362.42,152.49 356.42,178.1 339.42,198.52 C321.96,219.52 297.29,233.9 273.3,246.2 L333.59,309.59 Z M167.37,292.46 C140.28,309.25 104.7,341.8 132.03,374.91 C159.91,408.68 211.67,393.09 242.87,373.66 L167.37,292.46 Z M218.76,188.46 C238.07,176.87 258.65,160.17 262.52,136.59 C266.52,112.41 250.61,87.41 225.31,85.21 C201,83.06 179.4,102.33 181.43,127.3 C183.32,150.6 203.85,172.25 218.76,188.42 L218.76,188.46 Z" id="Shape"></path>
                <polyline id="Shape" points="485.9 439.06 485.9 0.25 765.83 0.25 765.83 108.56 613.83 108.56 613.83 190.78 765.83 190.78 765.83 299.1 613.83 299.1 613.83 383.93 765.83 383.93 765.83 492.25 535.65 492.25"></polyline>
                <path d="M1195,492.26 L1035.75,492.26 L913.73,303 L913.73,492.26 L785.83,492.26 L785.83,0.26 L954.24,0.26 C984.59,0.26 1016.07,0.26 1049.04,9.58 C1078.47,17.92 1103.61,37.02 1121.04,62.31 C1139.64,89.31 1147.63,122.13 1147.3,154.62 C1146.98,186.62 1139.49,219.31 1119.12,244.73 C1099.43,269.3 1070.49,283.55 1040.3,290.62 L1195,492.26 Z M913.73,220.16 C945.66,220.16 986.42,222.9 1006.86,193.02 C1018.51,176.02 1019.41,150.31 1010.37,131.95 C1001.17,113.26 981.48,103.95 961.81,100.64 C946,98 929.7,98.79 913.73,98.79 L913.73,220.16 Z" id="Shape"></path>
                <path d="M1149.46,399.78 L1201.37,347.4 C1226.48,369.66 1256.17,388.55 1289.79,394.12 C1316.79,398.6 1351.16,395.65 1364.9,368.05 C1371.08,355.63 1370.63,338.92 1362.54,327.42 C1354.14,315.47 1339.54,309.12 1326.37,303.98 C1295.49,291.9 1262.12,284.41 1232.77,268.72 C1206.49,254.72 1184.77,232.5 1175,203.96 C1165,174.78 1165.85,140.1 1173.61,110.52 C1181.3,81.21 1197.78,54.2 1221.46,35.12 C1245.51,15.73 1275.67,5.07 1306.14,1.58 C1377.55,-6.58 1447.71,17.49 1504.62,59.89 L1429.92,134.53 C1403.58,113.15 1368.52,96.85 1333.92,104.15 C1320.92,106.9 1307.57,113.99 1301,126.07 C1294.18,138.62 1295.52,155.07 1305.65,165.39 C1317.21,177.13 1333.97,183.23 1349.42,187.85 C1366.21,192.85 1383.07,197.71 1399.42,204.21 C1425.91,214.76 1452.03,229.43 1470.49,251.64 C1489.37,274.35 1497.35,303.45 1498.32,332.56 C1499.42,365.64 1492.6,399.3 1474.58,427.42 C1438.65,483.49 1368.11,502.42 1304.98,499.77 C1271.92926,498.357091 1239.42094,490.872379 1209.08,477.69" id="Shape"></path>
            </g>
        </g>
    </g>
</svg>